HIERARCHY
ROOT Hips
{
	OFFSET 0.000000 100.481300 0.000000
	CHANNELS 6 Xposition Yposition Zposition Xrotation Yrotation Zrotation
	JOINT Spine
	{
		OFFSET -0.279200 12.230698 -2.892100
		CHANNELS 3 Xrotation Yrotation Zrotation
		JOINT Spine1
		{
			OFFSET -0.325700 14.269203 -3.374200
			CHANNELS 3 Xrotation Yrotation Zrotation
			JOINT Spine2
			{
				OFFSET -0.372300 16.307602 -0.352600
				CHANNELS 3 Xrotation Yrotation Zrotation
				JOINT Neck
				{
					OFFSET -0.418800 17.814194 8.416900
					CHANNELS 3 Xrotation Yrotation Zrotation
					JOINT Head
					{
						OFFSET 0.000000 7.031097 3.806800
						CHANNELS 3 Xrotation Yrotation Zrotation
						JOINT HeadTop_End
						{
							OFFSET 0.000000 24.646606 12.978600
							CHANNELS 3 Xrotation Yrotation Zrotation
							End Site
							{
								OFFSET 0.000000 27.854965 0.000000
							}
						}
					}
				}
				JOINT LeftShoulder
				{
					OFFSET 16.952999 14.495407 -7.737500
					CHANNELS 3 Xrotation Yrotation Zrotation
					JOINT LeftArm
					{
						OFFSET 9.308998 -2.777710 0.208600
						CHANNELS 3 Xrotation Yrotation Zrotation
						JOINT LeftForeArm
						{
							OFFSET 29.972298 0.000000 0.000000
							CHANNELS 3 Xrotation Yrotation Zrotation
							JOINT LeftHand
							{
								OFFSET 26.026505 0.000000 0.000000
								CHANNELS 3 Xrotation Yrotation Zrotation
								JOINT LeftHandThumb1
								{
									OFFSET 12.240501 -7.147949 9.207150
									CHANNELS 3 Xrotation Yrotation Zrotation
									JOINT LeftHandThumb2
									{
										OFFSET 4.138618 -2.389435 2.389433
										CHANNELS 3 Xrotation Yrotation Zrotation
										JOINT LeftHandThumb3
										{
											OFFSET 2.726913 -1.574387 1.574386
											CHANNELS 3 Xrotation Yrotation Zrotation
											JOINT LeftHandThumb4
											{
												OFFSET 3.941010 -2.275345 2.275342
												CHANNELS 3 Xrotation Yrotation Zrotation
												End Site
												{
													OFFSET -0.005798 5.087799 0.009903
												}
											}
										}
									}
								}
								JOINT LeftHandIndex1
								{
									OFFSET 24.424698 -1.985611 5.953459
									CHANNELS 3 Xrotation Yrotation Zrotation
									JOINT LeftHandIndex2
									{
										OFFSET 6.426697 0.000000 0.000000
										CHANNELS 3 Xrotation Yrotation Zrotation
										JOINT LeftHandIndex3
										{
											OFFSET 5.337898 0.000000 0.000000
											CHANNELS 3 Xrotation Yrotation Zrotation
											JOINT LeftHandIndex4
											{
												OFFSET 4.409401 0.000000 0.000000
												CHANNELS 3 Xrotation Yrotation Zrotation
												End Site
												{
													OFFSET 0.000000 4.409363 0.014373
												}
											}
										}
									}
								}
								JOINT LeftHandMiddle1
								{
									OFFSET 23.810104 0.000000 0.000000
									CHANNELS 3 Xrotation Yrotation Zrotation
									JOINT LeftHandMiddle2
									{
										OFFSET 7.176498 0.000000 0.000000
										CHANNELS 3 Xrotation Yrotation Zrotation
										JOINT LeftHandMiddle3
										{
											OFFSET 6.774902 0.000000 0.000000
											CHANNELS 3 Xrotation Yrotation Zrotation
											JOINT LeftHandMiddle4
											{
												OFFSET 5.403328 0.000000 0.000000
												CHANNELS 3 Xrotation Yrotation Zrotation
												End Site
												{
													OFFSET -0.027702 5.403244 0.017414
												}
											}
										}
									}
								}
								JOINT LeftHandRing1
								{
									OFFSET 22.908401 -0.839279 -6.020567
									CHANNELS 3 Xrotation Yrotation Zrotation
									JOINT LeftHandRing2
									{
										OFFSET 6.337502 0.000000 0.000000
										CHANNELS 3 Xrotation Yrotation Zrotation
										JOINT LeftHandRing3
										{
											OFFSET 5.779297 0.000000 0.000000
											CHANNELS 3 Xrotation Yrotation Zrotation
											JOINT LeftHandRing4
											{
												OFFSET 4.965698 0.000000 0.000000
												CHANNELS 3 Xrotation Yrotation Zrotation
												End Site
												{
													OFFSET 0.000000 4.965668 0.016186
												}
											}
										}
									}
								}
								JOINT LeftHandPinky1
								{
									OFFSET 20.037003 -1.530319 -10.950146
									CHANNELS 3 Xrotation Yrotation Zrotation
									JOINT LeftHandPinky2
									{
										OFFSET 5.254700 0.000000 0.000000
										CHANNELS 3 Xrotation Yrotation Zrotation
										JOINT LeftHandPinky3
										{
											OFFSET 4.810204 0.000000 0.000000
											CHANNELS 3 Xrotation Yrotation Zrotation
											JOINT LeftHandPinky4
											{
												OFFSET 3.647202 0.000000 0.000000
												CHANNELS 3 Xrotation Yrotation Zrotation
												End Site
												{
													OFFSET 0.000000 3.647186 0.011889
												}
											}
										}
									}
								}
							}
						}
					}
				}
				JOINT RightShoulder
				{
					OFFSET -15.141001 14.495407 -7.737500
					CHANNELS 3 Xrotation Yrotation Zrotation
					JOINT RightArm
					{
						OFFSET -9.308998 -2.777710 0.208500
						CHANNELS 3 Xrotation Yrotation Zrotation
						JOINT RightForeArm
						{
							OFFSET -29.972300 0.000000 0.000000
							CHANNELS 3 Xrotation Yrotation Zrotation
							JOINT RightHand
							{
								OFFSET -26.026505 0.000000 0.000000
								CHANNELS 3 Xrotation Yrotation Zrotation
								JOINT RightHandThumb1
								{
									OFFSET -12.240601 -7.148026 9.207092
									CHANNELS 3 Xrotation Yrotation Zrotation
									JOINT RightHandThumb2
									{
										OFFSET -4.138618 -2.389435 2.389433
										CHANNELS 3 Xrotation Yrotation Zrotation
										JOINT RightHandThumb3
										{
											OFFSET -2.726974 -1.574417 1.574421
											CHANNELS 3 Xrotation Yrotation Zrotation
											JOINT RightHandThumb4
											{
												OFFSET -3.941010 -2.275345 2.275343
												CHANNELS 3 Xrotation Yrotation Zrotation
												End Site
												{
													OFFSET 0.005814 5.087799 0.009927
												}
											}
										}
									}
								}
								JOINT RightHandIndex1
								{
									OFFSET -24.424698 -1.985657 5.953444
									CHANNELS 3 Xrotation Yrotation Zrotation
									JOINT RightHandIndex2
									{
										OFFSET -6.426697 0.000000 0.000000
										CHANNELS 3 Xrotation Yrotation Zrotation
										JOINT RightHandIndex3
										{
											OFFSET -5.337898 0.000000 0.000000
											CHANNELS 3 Xrotation Yrotation Zrotation
											JOINT RightHandIndex4
											{
												OFFSET -4.409401 0.000000 0.000000
												CHANNELS 3 Xrotation Yrotation Zrotation
												End Site
												{
													OFFSET 0.000000 4.409363 0.014408
												}
											}
										}
									}
								}
								JOINT RightHandMiddle1
								{
									OFFSET -23.810097 0.000000 0.000000
									CHANNELS 3 Xrotation Yrotation Zrotation
									JOINT RightHandMiddle2
									{
										OFFSET -7.176498 0.000000 0.000000
										CHANNELS 3 Xrotation Yrotation Zrotation
										JOINT RightHandMiddle3
										{
											OFFSET -6.774902 0.000000 0.000000
											CHANNELS 3 Xrotation Yrotation Zrotation
											JOINT RightHandMiddle4
											{
												OFFSET -5.403328 0.000000 0.000000
												CHANNELS 3 Xrotation Yrotation Zrotation
												End Site
												{
													OFFSET 0.027702 5.403244 0.017457
												}
											}
										}
									}
								}
								JOINT RightHandRing1
								{
									OFFSET -22.908302 -0.839325 -6.020576
									CHANNELS 3 Xrotation Yrotation Zrotation
									JOINT RightHandRing2
									{
										OFFSET -6.337502 0.000000 0.000000
										CHANNELS 3 Xrotation Yrotation Zrotation
										JOINT RightHandRing3
										{
											OFFSET -5.779297 0.000000 0.000000
											CHANNELS 3 Xrotation Yrotation Zrotation
											JOINT RightHandRing4
											{
												OFFSET -4.965698 0.000000 0.000000
												CHANNELS 3 Xrotation Yrotation Zrotation
												End Site
												{
													OFFSET 0.000000 4.965668 0.016226
												}
											}
										}
									}
								}
								JOINT RightHandPinky1
								{
									OFFSET -20.037003 -1.530334 -10.950259
									CHANNELS 3 Xrotation Yrotation Zrotation
									JOINT RightHandPinky2
									{
										OFFSET -5.254700 0.000000 0.000000
										CHANNELS 3 Xrotation Yrotation Zrotation
										JOINT RightHandPinky3
										{
											OFFSET -4.810204 0.000000 0.000000
											CHANNELS 3 Xrotation Yrotation Zrotation
											JOINT RightHandPinky4
											{
												OFFSET -3.647202 0.000000 0.000000
												CHANNELS 3 Xrotation Yrotation Zrotation
												End Site
												{
													OFFSET 0.000000 3.647186 0.011917
												}
											}
										}
									}
								}
							}
						}
					}
				}
			}
		}
	}
	JOINT LeftUpLeg
	{
		OFFSET 15.427100 -6.655098 0.678600
		CHANNELS 3 Xrotation Yrotation Zrotation
		JOINT LeftLeg
		{
			OFFSET 4.081073 -39.591068 13.024000
			CHANNELS 3 Xrotation Yrotation Zrotation
			JOINT LeftFoot
			{
				OFFSET -4.081074 -37.707932 -15.979700
				CHANNELS 3 Xrotation Yrotation Zrotation
				JOINT LeftToeBase
				{
					OFFSET 5.346399 -15.068900 20.645000
					CHANNELS 3 Xrotation Yrotation Zrotation
					JOINT LeftToe_End
					{
						OFFSET 2.754700 0.931300 11.300900
						CHANNELS 3 Xrotation Yrotation Zrotation
						End Site
						{
							OFFSET 0.000000 11.669021 0.000000
						}
					}
				}
			}
		}
	}
	JOINT RightUpLeg
	{
		OFFSET -15.569500 -6.655098 0.678600
		CHANNELS 3 Xrotation Yrotation Zrotation
		JOINT RightLeg
		{
			OFFSET -4.081825 -39.591045 13.023800
			CHANNELS 3 Xrotation Yrotation Zrotation
			JOINT RightFoot
			{
				OFFSET 4.081824 -37.707954 -15.979600
				CHANNELS 3 Xrotation Yrotation Zrotation
				JOINT RightToeBase
				{
					OFFSET -5.346400 -15.068900 20.645000
					CHANNELS 3 Xrotation Yrotation Zrotation
					JOINT RightToe_End
					{
						OFFSET -2.754700 0.931300 11.300900
						CHANNELS 3 Xrotation Yrotation Zrotation
						End Site
						{
							OFFSET 0.000000 11.669021 0.000000
						}
					}
				}
			}
		}
	}
}
MOTION
Frames: 4
Frame Time: 0.033333
-3.258724 60.680359 -24.025822 53.632244 31.031732 -32.356939 57.101126 2.676960 -1.686963 13.621338 1.664041 2.332159 13.605680 2.050814 1.983896 -24.125215 -6.608068 -2.473493 -52.940878 -16.977707 7.313092 -0.000000 -0.000002 -0.000000 6.054187 -30.097580 7.662552 -45.076762 -32.606527 4.010688 0.000000 -46.678131 0.000020 -57.478665 -14.779278 36.007347 -11.169180 -7.471281 -6.092647 12.093535 29.785471 -3.407639 -7.836399 -2.038879 13.233357 -0.000002 0.000001 -0.000000 -1.506624 -6.937526 -9.701258 0.031097 0.603450 -5.899291 0.004172 -0.221360 2.160590 0.000001 -0.000000 0.000000 -0.019792 -2.352193 -1.254073 0.039860 0.682987 -6.680229 0.021286 0.499564 -4.880945 -0.000003 0.000001 0.000001 -0.302086 3.658125 11.217469 0.009672 0.336906 -3.289506 0.000962 0.106476 -1.039054 0.000001 -0.000000 0.000001 -2.059588 11.324799 13.071462 0.001329 0.124978 -1.219799 0.003448 -0.201185 1.963666 -0.000003 0.000001 0.000001 4.387443 20.232673 -3.678092 -52.923741 39.496440 -0.793316 0.000024 54.191708 -0.000012 -27.102718 0.242354 -28.761650 -8.869124 9.529780 -6.956873 8.915602 -20.287663 -1.033369 -6.154441 -3.897519 -14.586477 -0.000002 -0.000001 0.000000 1.328029 5.346930 -9.794417 0.001185 -0.104374 1.281280 0.000007 0.007855 -0.096373 0.000001 0.000002 -0.000000 0.816998 1.151497 -15.235977 0.011522 -0.327785 4.027086 0.002178 -0.142442 1.748847 -0.000002 0.000003 0.000002 -0.737738 -3.902764 -18.460873 0.000311 -0.054637 0.670691 0.003629 0.183906 -2.258075 -0.000002 0.000001 0.000002 -4.436500 -13.020046 -21.863393 0.001057 -0.098994 1.215492 0.006716 0.250349 -3.074812 -0.000003 -0.000001 0.000003 -74.730807 -24.879913 30.737473 56.372529 -4.113017 4.615707 -14.775118 10.166279 -38.936374 -3.680469 -0.000022 0.000012 -0.000000 -0.000002 -0.000000 -63.957946 27.098041 -35.993622 60.930410 3.496546 -3.081707 -12.807321 -27.128775 39.824596 -1.932822 0.000010 -0.000012 -0.000000 -0.000001 -0.000001 
-4.420666 61.829865 -24.253979 50.135832 32.128151 -30.843300 53.207239 1.945963 -1.399979 13.836516 1.317157 2.309423 13.825705 1.650725 2.030382 -24.494848 -6.348576 -2.124393 -52.144167 -15.841138 8.505289 -0.000001 0.000000 -0.000000 5.105673 -27.155237 4.505053 -34.077692 -30.398488 8.097357 0.000002 -41.556677 0.000010 -64.833713 -17.502059 24.682169 -12.625245 -8.760022 -6.417082 11.513232 27.968332 -3.084435 -7.909910 -2.275307 13.244006 0.000001 -0.000000 -0.000001 -2.271761 -5.783662 -15.253791 0.027957 0.572216 -5.592878 0.003438 -0.200883 1.960643 -0.000000 -0.000000 -0.000001 -0.600971 -1.392495 -9.207091 0.030853 0.601077 -5.876019 0.010546 0.351725 -3.434331 -0.000002 0.000001 -0.000000 0.013791 3.645032 2.142802 0.009763 0.338448 -3.304551 0.000037 0.021998 -0.214642 -0.000001 -0.000000 0.000000 -0.354157 11.395362 3.097745 0.005326 0.250018 -2.440458 0.002348 -0.165781 1.617975 -0.000001 -0.000001 0.000002 4.033503 21.011113 -1.872120 -42.084074 40.168483 -6.866513 -0.000020 49.606602 0.000033 -37.828644 3.189191 -12.464000 -8.780088 9.373936 -8.417940 7.506038 -16.911753 -1.272977 -5.616064 -5.239567 -14.695727 -0.000002 -0.000001 0.000004 1.308518 6.766437 -7.913525 0.003743 -0.186933 2.295050 0.000146 -0.036097 0.443113 0.000000 -0.000001 -0.000003 0.508794 0.819247 -9.562750 0.022752 -0.460216 5.658764 0.004669 -0.208828 2.564435 -0.000001 -0.000001 -0.000000 -0.591398 -4.325994 -13.914807 0.004965 -0.215090 2.641320 0.001295 0.109685 -1.346594 0.000000 -0.000000 0.000002 -2.610887 -12.207089 -14.761827 0.032365 -0.548674 6.750942 0.001023 -0.097777 1.200461 -0.000001 -0.000000 -0.000001 -71.576681 -23.781436 31.414174 54.477592 -4.614981 5.329756 -13.163739 9.924004 -38.770066 -4.078977 -0.000010 -0.000001 -0.000000 -0.000002 -0.000000 -63.288574 25.798953 -34.402864 60.245089 2.512479 -2.834052 -11.963833 -24.634223 39.513382 -1.511856 0.000000 -0.000002 -0.000000 -0.000003 -0.000000 
-5.297623 62.534523 -24.297783 45.346189 33.092045 -28.363172 48.803057 1.286195 -1.074372 13.826419 1.132529 2.049915 13.820749 1.349488 1.789788 -23.909627 -6.090386 -1.862770 -50.967449 -15.119368 9.658085 -0.000000 -0.000001 0.000001 4.258332 -23.848055 0.488228 -22.027420 -29.953798 10.309143 -0.000008 -34.631258 0.000001 -68.099138 -20.116729 14.424550 -13.952228 -9.873346 -6.763921 11.147865 26.610859 -2.896055 -7.954722 -2.418112 13.250244 -0.000001 0.000001 -0.000001 -2.515807 -4.939868 -17.981188 0.032019 0.612271 -5.985781 0.000604 -0.084399 0.823531 -0.000002 0.000001 -0.000000 -0.815759 -0.730330 -13.367023 0.043410 0.712631 -6.971612 0.013711 0.400913 -3.915317 -0.000001 0.000002 0.000000 0.119345 3.221170 -5.398561 0.020510 0.490424 -4.791401 0.000580 0.081961 -0.799860 0.000000 -0.000000 -0.000001 0.659037 10.657188 -3.815729 0.018274 0.462881 -4.521757 0.000145 -0.040864 0.398731 0.000003 -0.000000 0.000001 3.743118 22.930234 1.702133 -26.524710 39.248996 -16.349171 -0.000029 42.888537 0.000031 -43.735501 4.685321 -0.163562 -8.427227 8.635333 -9.951837 5.940322 -13.092047 -1.475656 -4.753401 -7.374256 -14.860169 -0.000002 -0.000001 0.000001 0.992622 7.939928 -5.017785 0.008306 -0.278473 3.420610 0.000844 -0.089189 1.094710 -0.000000 0.000001 -0.000000 0.108658 -0.095075 -1.552861 0.060307 -0.747886 9.220876 0.019648 -0.427810 5.259148 0.000000 0.000001 0.000000 -0.295751 -5.005750 -6.691209 0.036366 -0.581617 7.158537 0.002962 -0.166267 2.041535 0.000000 0.000000 -0.000000 -0.633849 -10.451068 -5.027821 0.127889 -1.084977 13.443104 0.029962 -0.527946 6.494793 0.000001 -0.000000 0.000000 -67.118199 -22.748514 33.076502 53.691376 -5.529817 5.216810 -12.562577 10.223012 -37.855313 -4.672500 0.000010 -0.000007 0.000000 0.000003 0.000000 -62.031525 24.387529 -33.152458 60.020806 1.577836 -2.359837 -11.764804 -21.263508 39.214701 -1.095809 0.000011 -0.000000 0.000000 -0.000001 -0.000000 
-5.933468 63.328979 -24.013779 39.860523 33.922602 -25.192340 44.056438 0.945216 -0.518252 13.626910 1.084469 1.768229 13.624775 1.154006 1.506690 -22.755344 -5.784714 -1.868178 -48.837150 -14.692613 10.241615 0.000000 0.000000 0.000000 3.456662 -20.961183 -4.006140 -10.139270 -31.036253 10.742074 -0.000002 -27.155791 -0.000013 -66.078966 -23.780776 6.862486 -13.956885 -9.800218 -6.612329 11.006485 25.787994 -2.835902 -7.855987 -2.091050 13.235051 -0.000002 -0.000000 -0.000001 -2.325852 -3.949705 -18.696815 0.040552 0.688832 -6.737660 0.000513 0.077863 -0.759912 -0.000001 -0.000001 0.000000 -0.762879 0.027627 -15.113475 0.082607 0.981383 -9.622773 0.031771 0.610021 -5.963737 -0.000000 0.000000 -0.000000 -0.011108 2.544353 -11.098485 0.050972 0.771985 -7.555615 0.006147 0.268499 -2.621011 -0.000001 -0.000001 -0.000000 1.079525 9.463080 -8.354307 0.044409 0.720771 -7.051655 0.001470 0.131516 -1.283499 -0.000001 0.000000 0.000000 2.943075 23.529517 6.869908 -10.033825 39.598093 -24.061855 -0.000024 32.836158 0.000024 -39.534573 8.341186 4.933699 -8.179709 7.324928 -10.179255 5.650630 -12.355770 -1.450648 -4.185991 -8.767838 -14.961502 0.000001 -0.000000 -0.000000 0.163947 7.074331 -0.335483 0.016376 -0.390579 4.800157 0.002980 -0.166898 2.049289 0.000001 0.000002 0.000000 -0.069431 -1.493170 6.436350 0.124284 -1.069832 13.252053 0.050020 -0.681468 8.395845 -0.000001 -0.000002 -0.000001 0.128071 -4.959607 1.654772 0.105498 -0.986708 12.205572 0.024912 -0.481685 5.923867 -0.000000 0.000000 0.000000 0.427854 -8.462481 3.364281 0.223776 -1.427742 17.815886 0.062557 -0.761533 9.390833 0.000000 -0.000000 0.000001 -61.589475 -20.752015 34.916378 52.468752 -6.627784 5.236942 -12.472113 10.544838 -37.465483 -5.351789 0.000010 0.000010 -0.000001 -0.000001 -0.000000 -59.828291 22.781842 -32.271124 59.795082 1.038846 -1.891654 -12.125006 -17.975091 37.684848 -0.789128 0.000007 -0.000015 -0.000000 0.000000 0.000000 
